<?xml version="1.0" encoding="utf-8"?>
<!-- Generator: Adobe Illustrator 27.0.0, SVG Export Plug-In . SVG Version: 6.00 Build 0)  -->
<svg version="1.1" id="Layer_1" xmlns="http://www.w3.org/2000/svg" xmlns:xlink="http://www.w3.org/1999/xlink" x="0px" y="0px"
	 viewBox="0 0 260 235.2" style="enable-background:new 0 0 260 235.2;" xml:space="preserve">
<style type="text/css">
	.st0{clip-path:url(#SVGID_00000163787511016845220760000013215578502826377123_);}
	.st1{fill:#FFFFFF;}
	.st2{clip-path:url(#SVGID_00000027565459026641343260000007834549196375325357_);}
	.st3{fill:url(#Rectangle_2711_00000085939841073600179620000000242949574200943294_);}
	.st4{clip-path:url(#SVGID_00000171721767217269744440000011020301877042841506_);}
	.st5{enable-background:new    ;}
	.st6{fill:#343434;}
</style>
<g id="Group_8616" transform="translate(0 0)">
	<g id="Group_8611" transform="translate(0 0)">
		<g>
			<defs>
				<rect id="SVGID_1_" width="260" height="235.2"/>
			</defs>
			<clipPath id="SVGID_00000065072423250686230970000012305924780780148131_">
				<use xlink:href="#SVGID_1_"  style="overflow:visible;"/>
			</clipPath>
			<g id="Group_8610" style="clip-path:url(#SVGID_00000065072423250686230970000012305924780780148131_);">
				<path id="Path_34121" class="st1" d="M246.9,235.2H13.1c-7.2,0-13.1-5.8-13.1-13.1v-28.9c0-7.2,5.8-13.1,13.1-13.1c0,0,0,0,0,0
					h233.9c7.2,0,13.1,5.8,13.1,13.1c0,0,0,0,0,0v28.9C260,229.4,254.2,235.2,246.9,235.2C246.9,235.2,246.9,235.2,246.9,235.2"/>
				<path id="Path_34122" class="st1" d="M231.9,101.9c0,56.3-45.6,101.9-101.9,101.9S28.1,158.2,28.1,101.9S73.7,0,130,0
					c0,0,0,0,0,0C186.3,0,231.9,45.6,231.9,101.9"/>
			</g>
		</g>
	</g>
	<g id="Group_8613" transform="translate(43.962 17.017)">
		<g>
			<defs>
				<path id="SVGID_00000066494380432204098680000001053320792549939078_" d="M0,86c0,47.5,38.5,86,86,86s86-38.5,86-86
					S133.6,0,86,0C38.5,0,0,38.5,0,86"/>
			</defs>
			<clipPath id="SVGID_00000055695202047323679640000011729236709643841156_">
				<use xlink:href="#SVGID_00000066494380432204098680000001053320792549939078_"  style="overflow:visible;"/>
			</clipPath>
			<g id="Group_8612" style="clip-path:url(#SVGID_00000055695202047323679640000011729236709643841156_);">
				
					<linearGradient id="Rectangle_2711_00000138550802751604516670000002288811236100095901_" gradientUnits="userSpaceOnUse" x1="-659.6288" y1="847.816" x2="-659.6147" y2="847.816" gradientTransform="matrix(172.076 0 0 -172.076 113460.8516 145974.8281)">
					<stop  offset="0" style="stop-color:#B6292F"/>
					<stop  offset="1" style="stop-color:#EB2529"/>
				</linearGradient>
				
					<rect id="Rectangle_2711" x="0" y="0" style="fill:url(#Rectangle_2711_00000138550802751604516670000002288811236100095901_);" width="172.1" height="172.1"/>
			</g>
		</g>
	</g>
	<g id="Group_8615" transform="translate(0 0)">
		<g>
			<defs>
				<rect id="SVGID_00000163040828450926261490000000619095825379725461_" width="260" height="235.2"/>
			</defs>
			<clipPath id="SVGID_00000161611012686783933220000001144109031010332060_">
				<use xlink:href="#SVGID_00000163040828450926261490000000619095825379725461_"  style="overflow:visible;"/>
			</clipPath>
			<g id="Group_8614" style="clip-path:url(#SVGID_00000161611012686783933220000001144109031010332060_);">
				<path id="Path_34124" class="st1" d="M177.4,72.5c-4.5-0.3-8.9-0.3-13.4,0c-5.3,0.6-4.1,6.1-4.1,6.1v22.6
					c-11.3-1.8-29.5-1.3-30.3-1.3c-0.8,0-18.2-0.5-29.5,1.3V78.6c0,0,1.2-5.5-4.1-6.1c-4.5-0.3-8.9-0.3-13.4,0c0,0-7.7,0.8-9.3,8.5
					v38.3c0,0,1.6,8.8,9.8,10.5c8.2,1.7,39.1,1.7,46.5,1.7h0.1c7.4,0,39.1,0,47.3-1.7c8.2-1.7,9.8-10.5,9.8-10.5V81.1
					C185.1,73.4,177.4,72.5,177.4,72.5"/>
			</g>
		</g>
	</g>
	<g class="st5">
		<path class="st6" d="M40.4,216v4.3H32c-1.6,0-2.8-0.1-3.7-0.2c-2.9-0.6-5-2.2-6.3-4.9c-0.8-1.8-1.2-4.1-1.2-6.8
			c0-3.2,0.6-5.8,1.9-7.9c0.9-1.5,2.1-2.5,3.6-3.2s3.5-1,5.9-1h8.1v4.3h-7.5c-2.3,0-4,0.6-5,1.8c-0.9,1-1.3,2.8-1.3,5.5
			c0,3.5,0.7,5.9,2.1,7c1,0.8,2.5,1.2,4.5,1.2H40.4z"/>
	</g>
	<g class="st5">
		<path class="st6" d="M53.8,196.1c2.4,0,4.5,0.4,6.3,1.2c2.1,1,3.6,2.6,4.5,4.9c0.7,1.8,1,3.9,1,6.4s-0.4,4.6-1.2,6.3
			c-1,2.2-2.6,3.7-4.7,4.5c-1.6,0.6-3.4,0.9-5.5,0.9c-2.7,0-5-0.5-7-1.5c-1.7-0.8-3-2.2-3.8-4s-1.3-4-1.3-6.5c0-4.6,1.1-7.8,3.4-9.8
			C47.3,197,50.1,196.1,53.8,196.1z M53.8,200.2c-2.4,0-4,0.8-5.1,2.3c-0.8,1.2-1.2,3.1-1.2,5.8c0,2.8,0.5,4.9,1.5,6.2
			c1,1.3,2.6,2,4.8,2c2.1,0,3.7-0.7,4.7-2s1.5-3.4,1.5-6.1c0-2.5-0.4-4.4-1.2-5.7C57.9,201,56.2,200.2,53.8,200.2z"/>
		<path class="st6" d="M74.1,196.3v14.4c0,1.1,0.1,2,0.3,2.7s0.5,1.2,1,1.6c1,1,2.4,1.5,4.2,1.5c1.1,0,2.2-0.2,3-0.6
			s1.4-0.9,1.8-1.6c0.3-0.7,0.5-1.9,0.5-3.6v-14.4h5.1v14.1c0,1.9-0.2,3.4-0.6,4.6s-1,2.2-1.8,2.9c-1.9,1.7-4.6,2.5-8.1,2.5
			c-3.7,0-6.4-0.8-8.1-2.4c-0.9-0.9-1.5-1.8-1.8-2.8s-0.5-2.5-0.5-4.4v-14.5H74.1z"/>
	</g>
	<g class="st5">
		<path class="st6" d="M112.8,216v4.3h-8.4c-1.6,0-2.8-0.1-3.7-0.2c-2.9-0.6-5-2.2-6.3-4.9c-0.8-1.8-1.2-4.1-1.2-6.8
			c0-3.2,0.6-5.8,1.9-7.9c0.9-1.5,2.1-2.5,3.6-3.2s3.5-1,5.9-1h8.1v4.3h-7.5c-2.3,0-4,0.6-5,1.8c-0.9,1-1.3,2.8-1.3,5.5
			c0,3.5,0.7,5.9,2.1,7c1,0.8,2.5,1.2,4.5,1.2H112.8z"/>
	</g>
	<g class="st5">
		<path class="st6" d="M135.7,196.3v24h-5.1v-9.9h-9.3v9.9h-5.1v-24h5.1v9.8h9.3v-9.8H135.7z"/>
	</g>
	<g class="st5">
		<path class="st6" d="M140.6,220.3v-24h13.6c2.1,0,3.7,0.2,4.6,0.7c1.1,0.6,2,1.5,2.5,2.8c0.4,0.9,0.6,1.8,0.6,2.8
			c0,1.2-0.3,2.4-1,3.5s-1.5,1.8-2.5,2.2c2.3,1.1,3.5,2.9,3.5,5.6c0,1.6-0.4,2.9-1.1,3.9c-0.6,0.9-1.5,1.5-2.5,1.9s-2.5,0.5-4.5,0.5
			H140.6z M145.7,206.1h7c0.7,0,1.3,0,1.6-0.1s0.7-0.2,1-0.5c0.8-0.6,1.1-1.4,1.1-2.4c0-1-0.4-1.7-1.1-2.1c-0.5-0.3-1.3-0.5-2.5-0.5
			h-7.1V206.1z M145.7,216h7c0.7,0,1.3,0,1.6-0.1s0.7-0.2,0.9-0.5c0.8-0.6,1.1-1.4,1.1-2.4c0-1-0.4-1.7-1.1-2.1
			c-0.5-0.3-1.3-0.5-2.5-0.5h-7.1V216z"/>
	</g>
	<g class="st5">
		<path class="st6" d="M162.9,220.3l9.9-24h5.9l9.9,24h-6l-2.3-5.6h-9.1l-2.3,5.6H162.9z M175.8,202l-3.4,8.4h6.8L175.8,202z"/>
		<path class="st6" d="M191.2,220.3V216h11c1.8,0,2.9-0.2,3.5-0.5c0.8-0.5,1.3-1.3,1.3-2.3c0-1.2-0.5-2-1.5-2.5
			c-0.6-0.3-1.5-0.5-2.7-0.5h-4.4c-2.7,0-4.7-0.5-5.9-1.5c-0.8-0.6-1.3-1.4-1.8-2.3s-0.6-1.9-0.6-3c0-1.7,0.5-3.2,1.5-4.6
			c1-1.3,2.5-2.1,4.6-2.4c0.7-0.1,1.8-0.1,3.2-0.1h11.9v4.3h-10.7c-1.6,0-2.7,0.1-3.2,0.2c-1.1,0.3-1.6,1.1-1.6,2.4
			c0,1.1,0.5,1.9,1.4,2.3c0.6,0.3,1.6,0.4,3,0.4h3.8c2,0,3.4,0.2,4.4,0.5c1.7,0.6,2.9,1.6,3.5,3c0.5,1.2,0.8,2.4,0.8,3.7
			c0,1.5-0.3,2.8-1,3.9c-0.9,1.6-2.3,2.6-4.2,2.9c-0.9,0.2-2.3,0.2-4.1,0.2H191.2z"/>
		<path class="st6" d="M234.3,196.3v4.3h-6.7c-1.7,0-3,0.1-3.8,0.4s-1.5,0.7-2,1.4c-0.4,0.5-0.6,0.9-0.7,1.4s-0.2,1.3-0.3,2.5h13.5
			v4.3h-13.5c0.2,2.1,0.8,3.5,1.8,4.3s2.8,1.2,5.3,1.2h6.4v4.3h-6.7c-1.8,0-3.4-0.1-4.8-0.3c-2.2-0.4-3.9-1.3-5.2-2.8
			c-1.8-2.2-2.7-5.2-2.7-9c0-4.2,1.3-7.4,3.8-9.8c0.9-0.8,1.8-1.3,2.8-1.6s2.3-0.5,4-0.5H234.3z"/>
	</g>
</g>
</svg>
